<svg version="1.1" xmlns="http://www.w3.org/2000/svg" xmlns:xlink="http://www.w3.org/1999/xlink" width="364.09716796875" height="219"><defs/><g><g transform="translate(-78,-30) scale(1,1)"><rect fill="#C0C0C0" stroke="none" x="95" y="47" width="71.736328125" height="39" opacity="0.2"/></g><g transform="translate(-78,-30) scale(1,1)"><rect fill="#ffffff" stroke="none" x="88" y="40" width="71.736328125" height="39"/></g><g transform="translate(-78,-30) scale(1,1)"><path fill="none" stroke="#000000" d="M 88 40 L 159.736328125 40 L 159.736328125 79 L 88 79 L 88 40 Z Z" stroke-miterlimit="10"/></g><g transform="translate(-78,-30) scale(1,1)"><g><path fill="none" stroke="none"/><text fill="#000000" stroke="none" font-family="Arial" font-size="13px" font-style="normal" font-weight="bold" text-decoration="none" x="110.14453125" y="59.5">SUD</text></g></g><g transform="translate(-78,-30) scale(1,1)"><path fill="none" stroke="#000000" d="M 124.5 80 L 124.5 239" stroke-miterlimit="10" stroke-dasharray="3"/></g><g transform="translate(-78,-30) scale(1,1)"><rect fill="#C0C0C0" stroke="none" x="311" y="47" width="128.09716796875" height="39" opacity="0.2"/></g><g transform="translate(-78,-30) scale(1,1)"><rect fill="#ffffff" stroke="none" x="304" y="40" width="128.09716796875" height="39"/></g><g transform="translate(-78,-30) scale(1,1)"><path fill="none" stroke="#000000" d="M 304 40 L 432.09716796875 40 L 432.09716796875 79 L 304 79 L 304 40 Z Z" stroke-miterlimit="10"/></g><g transform="translate(-78,-30) scale(1,1)"><g><path fill="none" stroke="none"/><text fill="#000000" stroke="none" font-family="Arial" font-size="13px" font-style="normal" font-weight="bold" text-decoration="none" x="327.582275390625" y="59.5">External Bank</text></g></g><g transform="translate(-78,-30) scale(1,1)"><path fill="none" stroke="#000000" d="M 369.5 80 L 369.5 239" stroke-miterlimit="10" stroke-dasharray="3"/></g><g transform="translate(-78,-30) scale(1,1)"><g><path fill="none" stroke="none"/><text fill="#000000" stroke="none" font-family="Arial" font-size="13px" font-style="normal" font-weight="normal" text-decoration="none" x="221" y="138">{payload-1}</text></g></g><g transform="translate(-78,-30) scale(1,1)"><g><path fill="none" stroke="none"/><text fill="#000000" stroke="none" font-family="Arial" font-size="13px" font-style="normal" font-weight="normal" text-decoration="none" x="213" y="162">{payload-2}</text></g></g><g transform="translate(-78,-30) scale(1,1)"><path fill="none" stroke="#000000" d="M 124 125 L 362 125" stroke-miterlimit="10"/></g><g transform="translate(-78,-30) scale(1,1)"><path fill="#000000" stroke="none" d="M 351.83732514237585 129.209517756016 L 362 125 L 351.83732514237585 120.79048224398402"/></g><g transform="translate(-78,-30) scale(1,1)"><path fill="none" stroke="#000000" d="M 351.83732514237585 129.209517756016 L 362 125 L 351.83732514237585 120.79048224398402 L 351.83732514237585 129.209517756016" stroke-miterlimit="10"/></g><g transform="translate(-78,-30) scale(1,1)"><g><path fill="none" stroke="none"/><text fill="#000000" stroke="none" font-family="Arial" font-size="13px" font-style="normal" font-weight="normal" text-decoration="none" x="188.5" y="120.5">1 : POST /submit</text></g></g><g transform="translate(-78,-30) scale(1,1)"><rect fill="#ffffff" stroke="none" x="362" y="125" width="13" height="51"/></g><g transform="translate(-78,-30) scale(1,1)"><path fill="none" stroke="#000000" d="M 362 125 L 375 125 L 375 176 L 362 176 L 362 125 Z Z" stroke-miterlimit="10"/></g><g transform="translate(-78,-30) scale(1,1)"><path fill="none" stroke="#000000" d="M 362 170 L 130 170" stroke-miterlimit="10"/></g><g transform="translate(-78,-30) scale(1,1)"><path fill="#000000" stroke="none" d="M 140.16267485762415 165.790482243984 L 130 170 L 140.16267485762415 174.209517756016"/></g><g transform="translate(-78,-30) scale(1,1)"><path fill="none" stroke="#000000" d="M 140.16267485762415 165.790482243984 L 130 170 L 140.16267485762415 174.209517756016 L 140.16267485762415 165.790482243984" stroke-miterlimit="10"/></g><g transform="translate(-78,-30) scale(1,1)"><g><path fill="none" stroke="none"/><text fill="#000000" stroke="none" font-family="Arial" font-size="13px" font-style="normal" font-weight="normal" text-decoration="none" x="176.5" y="186.5">2 : /*result message*/</text></g></g><g transform="translate(-78,-30) scale(1,1)"><rect fill="#ffffff" stroke="none" x="117" y="170" width="13" height="28"/></g><g transform="translate(-78,-30) scale(1,1)"><path fill="none" stroke="#000000" d="M 117 170 L 130 170 L 130 198 L 117 198 L 117 170 Z Z" stroke-miterlimit="10"/></g></g></svg>