<svg version="1.1" xmlns="http://www.w3.org/2000/svg" xmlns:xlink="http://www.w3.org/1999/xlink" width="494.7490234375" height="84"><defs/><g><g transform="translate(-174,-150) scale(1,1)"><rect fill="#C0C0C0" stroke="none" x="201" y="167" width="98.44091796875" height="44" opacity="0.2"/></g><g transform="translate(-174,-150) scale(1,1)"><rect fill="#ffffff" stroke="none" x="194" y="160" width="98.44091796875" height="44"/></g><g transform="translate(-174,-150) scale(1,1)"><path fill="none" stroke="#000000" d="M 194 160 L 292.44091796875 160 L 292.44091796875 204 L 194 204 L 194 160 Z Z" stroke-miterlimit="10"/></g><g transform="translate(-174,-150) scale(1,1)"><rect fill="#ffffff" stroke="none" x="184" y="167" width="20" height="10"/></g><g transform="translate(-174,-150) scale(1,1)"><path fill="none" stroke="#000000" d="M 184 167 L 204 167 L 204 177 L 184 177 L 184 167 Z Z" stroke-miterlimit="10"/></g><g transform="translate(-174,-150) scale(1,1)"><rect fill="#ffffff" stroke="none" x="184" y="187" width="20" height="10"/></g><g transform="translate(-174,-150) scale(1,1)"><path fill="none" stroke="#000000" d="M 184 187 L 204 187 L 204 197 L 184 197 L 184 187 Z Z" stroke-miterlimit="10"/></g><g transform="translate(-174,-150) scale(1,1)"><g><path fill="none" stroke="none"/><text fill="#000000" stroke="none" font-family="Arial" font-size="13px" font-style="normal" font-weight="bold" text-decoration="none" x="234.496826171875" y="179.5">SUD</text></g></g><g transform="translate(-174,-150) scale(1,1)"><rect fill="#C0C0C0" stroke="none" x="529" y="175" width="136.7490234375" height="44" opacity="0.2"/></g><g transform="translate(-174,-150) scale(1,1)"><rect fill="#ffffff" stroke="none" x="522" y="168" width="136.7490234375" height="44"/></g><g transform="translate(-174,-150) scale(1,1)"><path fill="none" stroke="#000000" d="M 522 168 L 658.7490234375 168 L 658.7490234375 212 L 522 212 L 522 168 Z Z" stroke-miterlimit="10"/></g><g transform="translate(-174,-150) scale(1,1)"><rect fill="#ffffff" stroke="none" x="512" y="175" width="20" height="10"/></g><g transform="translate(-174,-150) scale(1,1)"><path fill="none" stroke="#000000" d="M 512 175 L 532 175 L 532 185 L 512 185 L 512 175 Z Z" stroke-miterlimit="10"/></g><g transform="translate(-174,-150) scale(1,1)"><rect fill="#ffffff" stroke="none" x="512" y="195" width="20" height="10"/></g><g transform="translate(-174,-150) scale(1,1)"><path fill="none" stroke="#000000" d="M 512 195 L 532 195 L 532 205 L 512 205 L 512 195 Z Z" stroke-miterlimit="10"/></g><g transform="translate(-174,-150) scale(1,1)"><g><path fill="none" stroke="none"/><text fill="#000000" stroke="none" font-family="Arial" font-size="13px" font-style="normal" font-weight="bold" text-decoration="none" x="542.62548828125" y="187.5">External Bank API</text></g></g><g transform="translate(-174,-150) scale(1,1)"><path fill="#C0C0C0" stroke="none" d="M 387 194.5 C 387 188.1487248 392.1487248 183 398.5 183 C 404.8512752 183 410 188.1487248 410 194.5 C 410 200.8512752 404.8512752 206 398.5 206 C 392.1487248 206 387 200.8512752 387 194.5 Z" opacity="0.2"/></g><g transform="translate(-174,-150) scale(1,1)"><path fill="none" stroke="#000000" d="M 391.2395313573411 198.4975051523733 A 11.5 11.5 0 0 1 390.7604686426589 175.5024948476267" stroke-miterlimit="10"/></g><g transform="translate(-174,-150) scale(1,1)"><path fill="#ffffff" stroke="none" d="M 383 187.5 C 383 182.8055792 386.8055792 179 391.5 179 C 396.1944208 179 400 182.8055792 400 187.5 C 400 192.1944208 396.1944208 196 391.5 196 C 386.8055792 196 383 192.1944208 383 187.5 Z"/></g><g transform="translate(-174,-150) scale(1,1)"><path fill="none" stroke="#000000" d="M 383 187.5 C 383 182.8055792 386.8055792 179 391.5 179 C 396.1944208 179 400 182.8055792 400 187.5 C 400 192.1944208 396.1944208 196 391.5 196 C 386.8055792 196 383 192.1944208 383 187.5 Z" stroke-miterlimit="10"/></g><g transform="translate(-174,-150) scale(1,1)"><g><path fill="none" stroke="none"/><text fill="#000000" stroke="none" font-family="Arial" font-size="13px" font-style="normal" font-weight="bold" text-decoration="none" x="347.513916015625" y="218.5">Submit "REST"</text></g></g><g transform="translate(-174,-150) scale(1,1)"><path fill="none" stroke="#000000" d="M 511 194 L 403 187.98969072164948" stroke-miterlimit="10"/></g><g transform="translate(-174,-150) scale(1,1)"><path fill="none" stroke="#000000" d="M 293 189 L 380 187.22916666666666" stroke-miterlimit="10"/></g></g></svg>